# xmcd
#
# Track frame offsets:
#	150
#	13477
#	27746
#	45777
#	60401
#	77670
#	97836
#	110820
#	129384
#	142909
#	164741
#
# Disc length: 2456 seconds
#
# Revision: 1
# Processed by: cddbd v1.5.2PL0 Copyright (c) Steve Scherf et al.
# Submitted via: audiograbber 1.83.01
#
DISCID=8d09960b
DTITLE=Luke Bryan - Doin' My Thing
DYEAR=2009
DGENRE=Country
TTITLE0=Rain Is a Good Thing
TTITLE1=Doin' My Thing
TTITLE2=Do I
TTITLE3=What Country Is
TTITLE4=Someone Else Calling You Baby
TTITLE5=Welcome to the Farm
TTITLE6=Apologize
TTITLE7=Every Time I See You
TTITLE8=Chuggin' Along
TTITLE9=I Did It Again
TTITLE10=Drinkin' Beer and Wastin' Bullets
EXTD=
EXTT0=
EXTT1=
EXTT2=
EXTT3=
EXTT4=
EXTT5=
EXTT6=
EXTT7=
EXTT8=
EXTT9=
EXTT10=
PLAYORDER=
